<?xml version="1.0" encoding="UTF-8"?>
<!DOCTYPE svg PUBLIC "-//W3C//DTD SVG 1.1//EN" "http://www.w3.org/Graphics/SVG/1.1/DTD/svg11.dtd">
<!-- Creator: CorelDRAW X7 -->
<svg xmlns="http://www.w3.org/2000/svg" xml:space="preserve" width="113px" height="100px" version="1.1" style="shape-rendering:geometricPrecision; text-rendering:geometricPrecision; image-rendering:optimizeQuality; fill-rule:evenodd; clip-rule:evenodd"
viewBox="0 0 113 100"
 xmlns:xlink="http://www.w3.org/1999/xlink"
 aria-hidden="true"
 focusable="false"
 data-prefix="far"
 data-icon="edit"
 role="img">
 <defs>
  <style type="text/css">
   <![CDATA[
    .fil0 {fill:#FF6600}
   ]]>
  </style>
 </defs>
 <g id="Capa_x0020_1">
  <metadata id="CorelCorpID_0Corel-Layer"/>
  <path class="fil0" d="M79 67l6 -6c1,-1 3,0 3,1l0 29c0,5 -4,9 -10,9l-69 0c-5,0 -9,-4 -9,-9l0 -69c0,-6 4,-10 9,-10l54 0c1,0 2,2 1,3l-6 6c0,0 -1,1 -1,1l-48 0 0 69 69 0 0 -23c0,0 1,0 1,-1l0 0zm31 -39l-52 51 -18 2c-5,1 -9,-4 -9,-9l2 -18 52 -51c4,-5 12,-5 16,0l9 8c4,5 4,12 0,17zm-20 6l-11 -12 -37 37 -1 13 13 -2 36 -36zm13 -16l-9 -8c0,-1 -2,-1 -2,0l-6 6 11 11 6 -6c1,-1 1,-2 0,-3l0 0z"/>
 </g>
</svg>
