<?xml version="1.0" encoding="UTF-8"?>
<!DOCTYPE svg PUBLIC "-//W3C//DTD SVG 1.1//EN" "http://www.w3.org/Graphics/SVG/1.1/DTD/svg11.dtd">
<!-- Creator: CorelDRAW X7 -->
<svg xmlns="http://www.w3.org/2000/svg" xml:space="preserve" width="30px" height="30px" version="1.1" style="shape-rendering:geometricPrecision; text-rendering:geometricPrecision; image-rendering:optimizeQuality; fill-rule:evenodd; clip-rule:evenodd"
viewBox="0 0 30 30"
 xmlns:xlink="http://www.w3.org/1999/xlink"
 aria-hidden="true"
 focusable="false"
 data-prefix="fas"
 data-icon="bars"
 role="img">
 <defs>
  <style type="text/css">
   <![CDATA[
    .fil0 {fill:#FF6600}
   ]]>
  </style>
 </defs>
 <g id="Capa_x0020_1">
  <metadata id="CorelCorpID_0Corel-Layer"/>
  <path class="fil0" d="M1 6l28 0c1,0 1,-1 1,-2l0 -3c0,0 0,-1 -1,-1l-28 0c-1,0 -1,1 -1,1l0 3c0,1 0,2 1,2zm0 12l28 0c1,0 1,-1 1,-1l0 -4c0,0 0,-1 -1,-1l-28 0c-1,0 -1,1 -1,1l0 4c0,0 0,1 1,1zm0 12l28 0c1,0 1,-1 1,-1l0 -3c0,-1 0,-2 -1,-2l-28 0c-1,0 -1,1 -1,2l0 3c0,0 0,1 1,1z"/>
 </g>
</svg>
