<?xml version="1.0" encoding="UTF-8"?>
<!DOCTYPE svg PUBLIC "-//W3C//DTD SVG 1.1//EN" "http://www.w3.org/Graphics/SVG/1.1/DTD/svg11.dtd">
<!-- Creator: CorelDRAW X7 -->
<svg xmlns="http://www.w3.org/2000/svg" xml:space="preserve" width="20px" height="20px" version="1.1" style="shape-rendering:geometricPrecision; text-rendering:geometricPrecision; image-rendering:optimizeQuality; fill-rule:evenodd; clip-rule:evenodd"
viewBox="0 0 20 20"
 xmlns:xlink="http://www.w3.org/1999/xlink"
 aria-hidden="true"
 focusable="false"
 data-prefix="fas"
 data-icon="check-circle"
 role="img">
 <defs>
  <style type="text/css">
   <![CDATA[
    .fil0 {fill:#A2A2A2}
   ]]>
  </style>
 </defs>
 <g id="Capa_x0020_1">
  <metadata id="CorelCorpID_0Corel-Layer"/>
  <path class="fil0" d="M20 10c0,6 -4,10 -10,10 -6,0 -10,-4 -10,-10 0,-6 4,-10 10,-10 6,0 10,4 10,10zm-11 5l7 -7c1,0 1,-1 0,-1l-1 -1c0,0 0,0 -1,0l-6 6 -2 -3c-1,0 -1,0 -1,0l-1 1c-1,0 -1,1 0,1l4 4c0,1 1,1 1,0l0 0z"/>
 </g>
</svg>
