<?xml version="1.0" encoding="UTF-8"?>
<!DOCTYPE svg PUBLIC "-//W3C//DTD SVG 1.1//EN" "http://www.w3.org/Graphics/SVG/1.1/DTD/svg11.dtd">
<!-- Creator: CorelDRAW X7 -->
<svg xmlns="http://www.w3.org/2000/svg" xml:space="preserve" width="121px" height="97px" version="1.1" style="shape-rendering:geometricPrecision; text-rendering:geometricPrecision; image-rendering:optimizeQuality; fill-rule:evenodd; clip-rule:evenodd"
viewBox="0 0 121 97"
 xmlns:xlink="http://www.w3.org/1999/xlink">
 <defs>
  <style type="text/css">
   <![CDATA[
    .fil0 {fill:none}
    .fil1 {fill:#FF6600}
   ]]>
  </style>
 </defs>
 <g id="Capa_x0020_1">
  <metadata id="CorelCorpID_0Corel-Layer"/>
  <polygon class="fil0" points="32,20 89,20 89,77 32,77 "/>
  <path class="fil1" d="M109 0l-97 0c-7,0 -12,6 -12,12l0 73c0,6 5,12 12,12l97 0c7,0 12,-6 12,-12l0 -73c0,-6 -5,-12 -12,-12zm-30 85l-67 0 0 -24 67 0 0 24 0 0zm0 -30l-67 0 0 -25 67 0 0 25 0 0zm30 30l-24 0 0 -55 24 0 0 55z"/>
 </g>
</svg>
