<?xml version="1.0" encoding="UTF-8"?>
<!DOCTYPE svg PUBLIC "-//W3C//DTD SVG 1.1//EN" "http://www.w3.org/Graphics/SVG/1.1/DTD/svg11.dtd">
<!-- Creator: CorelDRAW X7 -->
<svg xmlns="http://www.w3.org/2000/svg" xml:space="preserve" width="50px" height="50px" version="1.1" style="shape-rendering:geometricPrecision; text-rendering:geometricPrecision; image-rendering:optimizeQuality; fill-rule:evenodd; clip-rule:evenodd"
viewBox="0 0 50 50"
 xmlns:xlink="http://www.w3.org/1999/xlink"
 aria-hidden="true"
 focusable="false"
 data-prefix="fas"
 data-icon="phone-alt"
 role="img">
 <defs>
  <style type="text/css">
   <![CDATA[
    .fil0 {fill:black}
   ]]>
  </style>
 </defs>
 <g id="Capa_x0020_1">
  <metadata id="CorelCorpID_0Corel-Layer"/>
  <path class="fil0" d="M49 35l-11 -4c-1,0 -1,-1 -1,-1 -1,0 -2,1 -2,1l-5 6c-8,-3 -14,-9 -17,-17l6 -5c0,0 1,-1 1,-2 0,0 -1,0 -1,-1l-4 -11c-1,0 -2,-1 -3,-1 0,0 0,0 0,0l-10 2c-1,1 -2,2 -2,3 0,0 0,0 0,0 0,25 20,45 45,45 0,0 0,0 0,0 1,0 2,-1 3,-2l2 -10c0,0 0,0 0,0 0,-1 -1,-2 -1,-3l0 0z"/>
 </g>
</svg>
